# xmcd
#
# Track frame offsets:
#	150
#	15485
#	31340
#	49753
#	64174
#	86149
#	103558
#	118593
#	135431
#	155233
#	173147
#	190559
#
# Disc length: 2748 seconds
#
# Revision: 0
# Processed by: cddbd v1.5.2PL0 Copyright (c) Steve Scherf et al.
# Submitted via: EasyCDDAExtractor 15.3.0.1
#
DISCID=970aba0c
DTITLE=Shane Morkin
DYEAR=1900
DGENRE=
TTITLE0=Dont' Think Twice
TTITLE1=The Spell
TTITLE2=Have A Nice Day
TTITLE3=Hearts That Beat As One
TTITLE4=Forever
TTITLE5=Last Man on the Moon
TTITLE6=Stronger
TTITLE7=Fools Game
TTITLE8=Coffee Bar in Old Soho
TTITLE9=Ghost Town
TTITLE10=Someday
TTITLE11=Hurts to Say Goodbye
EXTD=
EXTT0=
EXTT1=
EXTT2=
EXTT3=
EXTT4=
EXTT5=
EXTT6=
EXTT7=
EXTT8=
EXTT9=
EXTT10=
EXTT11=
PLAYORDER=
